<svg width="43" height="42" viewBox="0 0 43 42" fill="none" xmlns="http://www.w3.org/2000/svg"><path clip-rule="evenodd" d="M30 1c6.627 0 12 8.059 12 18v22h-6V19c0-.879-.051-1.74-.132-2.586A7.96 7.96 0 0 1 30 19a6 6 0 0 1-6-6V7a6 6 0 0 1 6-6M12 1C5.373 1 0 9.059 0 19v22h6V19c0-.879.051-1.74.132-2.586A7.96 7.96 0 0 0 12 19a6 6 0 0 0 6-6V7a6 6 0 0 0-6-6" stroke="#161C2D" stroke-width="2" stroke-linecap="round" stroke-linejoin="round"/><path d="M12 8v4m18-4v4" stroke="#161C2D" stroke-width="2" stroke-linecap="round" stroke-linejoin="round"/></svg>